<?xml version="1.0"?>
<svg xmlns="http://www.w3.org/2000/svg" xmlns:xlink="http://www.w3.org/1999/xlink" version="1.1" id="Layer_1" x="0px" y="0px" viewBox="0 0 488.8 488.8" style="enable-background:new 0 0 488.8 488.8;" xml:space="preserve" width="512px" height="512px" class=""><g><path style="fill:#118DEA" d="M0,108.4c4.8,192,112,256,244,256s239.2-64,244-256H0z" data-original="#118DEA" class="" data-old_color="#118DEA"/><path style="fill:#1383E8" d="M244,365.2c132,0,239.2-66.4,244-256" data-original="#1383E8" class="" data-old_color="#1383E8"/><path style="fill:#0099E5" d="M0,109.2c4.8,189.6,112,256,244,256" data-original="#0099E5" class="" data-old_color="#0099E5"/><path style="fill:#69C2F9" d="M0.8,116.4H488c0,0,0,0,0.8-8H0.8C0,116.4,0,116.4,0.8,116.4z" data-original="#69C2F9" class="" data-old_color="#69C2F9"/><path style="fill:#0768D3" d="M132,340.4v31.2c0,4,3.2,8.8,7.2,8.8h209.6c4,0,7.2-4.8,7.2-8.8v-31.2H132z" data-original="#0768D3" class="active-path" data-old_color="#0768D3"/><path style="fill:#1383E8" d="M156,371.6v-31.2h-24v31.2c0,4,3.2,8.8,7.2,8.8h24C158.4,380.4,156,375.6,156,371.6z" data-original="#1383E8" class="" data-old_color="#1383E8"/></g> </svg>
